<svg class="icon" xmlns="http://www.w3.org/2000/svg" xmlns:xlink="http://www.w3.org/1999/xlink" x="0px" y="0px"
	 viewBox="0 0 64 64" enable-background="new 0 0 64 64" xml:space="preserve">
<circle fill="#D1CECC" cx="32" cy="32" r="31"/>
<path fill="#FFFFFF" d="M44.3,19c3.4,0.1,5,2,5.1,5.7c0,0.2,0,0.5,0,0.8c-0.1,3.2-2.5,7.5-7.1,12.9c-4.7,5.7-8.7,8.6-12,8.6
	c-2,0-3.7-1.8-5.1-5.3l-1.4-4.8l-1.4-4.8c-1-3.5-2.2-5.2-3.3-5.2c-0.3,0-1.2,0.5-2.7,1.5l-1.6-2l2.6-2.1l2.5-2.1
	c2.3-1.8,4-2.8,5.1-2.9c0.2,0,0.3,0,0.5,0c2.4,0,3.9,1.7,4.5,5.2c0.3,2,0.6,3.6,0.8,4.8c0.2,1.2,0.4,2.1,0.5,2.6
	c0.8,3.3,1.7,4.9,2.6,4.9c0.7,0,1.8-1.1,3.3-3.2s2.2-3.8,2.3-4.9c0-0.2,0-0.4,0-0.6c0-1.4-0.8-2.2-2.4-2.2c-0.8,0-1.6,0.2-2.6,0.5
	c1.6-5,4.8-7.6,9.4-7.6L44.3,19z"/>
</svg>
